<?xml version="1.0" encoding="utf-8"?><svg xml:space="preserve" viewBox="0 0 100 100" y="0" x="0" xmlns="http://www.w3.org/2000/svg" id="Layer_1" version="1.1" width="200px" height="200px" xmlns:xlink="http://www.w3.org/1999/xlink" style="width:100%;height:100%;background-size:initial;background-repeat-y:initial;background-repeat-x:initial;background-position-y:initial;background-position-x:initial;background-origin:initial;background-image:initial;background-color:rgb(255, 255, 255);background-clip:initial;background-attachment:initial;animation-play-state:paused" ><g class="ldl-scale" style="transform-origin:50% 50%;transform:rotate(0deg) scale(0.8, 0.8);animation-play-state:paused" ><path fill="#e0e0e0" d="M79.061 26.519L64.523 11.981c-1.066-1.043-2.04-1.545-2.931-1.55H29.948c-.844 0-1.531.682-1.531 1.52v67.151c0 .838.687 1.52 1.531 1.52H79c.844 0 1.531-.682 1.531-1.52V29.45c.007-.893-.455-1.865-1.47-2.931z" style="fill:rgb(224, 224, 224);animation-play-state:paused" ></path>
<path fill="#666" d="M65.581 26.519h13.48L64.523 11.981v13.48c0 .583.474 1.058 1.058 1.058z" style="fill:rgb(102, 102, 102);animation-play-state:paused" ></path>
<path fill="#323232" d="M65.439 8.203a2.395 2.395 0 0 0-1.702-.703H29.948c-2.46 0-4.462 1.997-4.462 4.451v67.151c0 2.454 2.002 4.451 4.462 4.451H79c2.46 0 4.462-1.997 4.462-4.451v-50.5a5.846 5.846 0 0 0-1.733-4.17L65.439 8.203zm-.916 3.778l14.538 14.538h-13.48a1.059 1.059 0 0 1-1.058-1.058M80.53 79.102c0 .838-.687 1.52-1.531 1.52H29.948a1.527 1.527 0 0 1-1.531-1.52V11.951c0-.838.687-1.52 1.531-1.52h31.643V25.46c0 2.2 1.79 3.99 3.99 3.99H80.53v49.652z" style="fill:rgb(50, 50, 50);animation-play-state:paused" ></path>
<path fill="#e0e0e0" d="M70.113 35.466L55.575 20.928c-1.066-1.043-2.04-1.545-2.931-1.55H21.001c-.844 0-1.531.682-1.531 1.52v67.151c0 .838.687 1.52 1.531 1.52h49.052c.844 0 1.531-.682 1.531-1.52V38.398c.007-.893-.455-1.866-1.471-2.932z" style="fill:rgb(224, 224, 224);animation-play-state:paused" ></path>
<path fill="#666" d="M56.634 35.466h13.48L55.575 20.928v13.48a1.06 1.06 0 0 0 1.059 1.058z" style="fill:rgb(102, 102, 102);animation-play-state:paused" ></path>
<path fill="#323232" d="M56.492 17.151a2.392 2.392 0 0 0-1.702-.703H21.001c-2.46 0-4.462 1.997-4.462 4.451V88.05c0 2.454 2.002 4.451 4.462 4.451h49.052c2.46 0 4.462-1.997 4.462-4.451v-50.5a5.846 5.846 0 0 0-1.733-4.17l-16.29-16.229zm-.917 3.777l14.538 14.538h-13.48a1.059 1.059 0 0 1-1.058-1.058m16.008 53.641c0 .838-.687 1.52-1.531 1.52H21.001a1.527 1.527 0 0 1-1.531-1.52V20.898c0-.838.687-1.52 1.531-1.52h31.643v15.029c0 2.2 1.79 3.99 3.99 3.99h14.949v49.652z" style="fill:rgb(50, 50, 50);animation-play-state:paused" ></path>
<metadata xmlns:d="https://loading.io/stock/" style="animation-play-state:paused" ><d:name style="animation-play-state:paused" >copy</d:name>
<d:tags style="animation-play-state:paused" >copy,duplicate,sync,clone,file</d:tags>
<d:license style="animation-play-state:paused" >by</d:license>
<d:slug style="animation-play-state:paused" >uu9zlp</d:slug></metadata></g><!-- generated by https://loading.io/ --></svg>