<?xml version="1.0" encoding="UTF-8" standalone="no"?>
<svg
   version="1.0"
   width="446.69925pt"
   height="105.72199pt"
   viewBox="0 0 446.69925 105.72199"
   preserveAspectRatio="xMidYMid meet"
   id="svg24"
   sodipodi:docname="6e032a8e70f3b0f414afe2458ceb747b.svg"
   xmlns:inkscape="http://www.inkscape.org/namespaces/inkscape"
   xmlns:sodipodi="http://sodipodi.sourceforge.net/DTD/sodipodi-0.dtd"
   xmlns="http://www.w3.org/2000/svg"
   xmlns:svg="http://www.w3.org/2000/svg">
  <defs
     id="defs28" />
  <sodipodi:namedview
     id="namedview26"
     pagecolor="#ffffff"
     bordercolor="#666666"
     borderopacity="1.0"
     inkscape:pageshadow="2"
     inkscape:pageopacity="0.0"
     inkscape:pagecheckerboard="0"
     inkscape:document-units="pt" />
  <metadata
     id="metadata2">
Created by potrace 1.16, written by Peter Selinger 2001-2019
</metadata>
  <g
     transform="matrix(0.1,0,0,-0.1,-25.30076,315.722)"
     fill="#000000"
     stroke="none"
     id="g22">
    <path
       d="m 653,3146 c -196,-50 -364,-234 -394,-434 -40,-265 124,-521 380,-596 33,-10 92,-16 146,-16 153,0 273,49 379,155 208,208 206,546 -5,753 -57,56 -123,98 -196,124 -73,26 -234,34 -310,14 z m 301,-50 c 145,-52 256,-167 306,-316 26,-78 28,-210 4,-290 -15,-52 -50,-130 -58,-130 -2,0 2,27 9,60 12,56 11,62 -7,85 -21,26 -56,33 -76,13 -8,-8 -15,-8 -24,-1 -7,6 -34,11 -60,11 -52,0 -48,5 -69,-90 -14,-64 -8,-88 20,-88 14,0 23,9 27,28 17,75 21,86 33,90 9,3 11,-10 5,-57 -7,-61 -7,-61 20,-61 20,0 27,6 32,28 17,75 21,86 33,90 9,3 11,-10 5,-56 l -6,-60 28,-4 29,-3 -61,-61 c -175,-178 -434,-203 -644,-62 -256,171 -283,553 -54,767 140,132 331,172 508,107 z"
       id="path4" />
    <path
       d="m 645,3010 c -31,-12 -95,-87 -117,-138 -29,-65 -34,-158 -11,-201 25,-49 95,-84 148,-76 77,12 118,52 161,160 6,16 9,11 14,-25 7,-55 21,-80 61,-114 76,-65 179,0 179,113 0,52 -11,79 -48,119 -25,26 -38,32 -72,32 -36,0 -48,-6 -76,-36 -19,-19 -34,-43 -34,-52 0,-12 -7,-9 -30,13 -28,27 -32,28 -96,21 -76,-8 -134,-29 -134,-48 0,-8 10,-22 22,-32 19,-17 27,-18 66,-7 25,6 47,10 49,7 3,-2 -3,-15 -11,-29 -32,-47 -116,-64 -136,-27 -18,34 5,127 46,188 42,61 71,72 121,48 38,-18 53,-14 53,13 0,23 -26,46 -73,66 -40,17 -53,18 -82,5 z"
       id="path6" />
    <path
       d="m 416,2559 c -15,-12 -26,-30 -26,-45 0,-28 41,-74 65,-74 22,0 14,-24 -9,-28 -10,-2 -25,3 -35,12 -13,12 -20,13 -29,4 -31,-31 6,-78 60,-78 37,0 76,19 83,42 7,21 25,24 25,4 0,-30 29,-45 83,-43 l 52,2 16,75 c 12,60 13,78 3,88 -25,25 -40,12 -54,-45 -10,-38 -21,-59 -32,-61 -14,-3 -15,2 -7,39 12,50 4,79 -21,79 -19,0 -40,-49 -40,-95 0,-16 -4,-13 -20,13 -11,18 -35,39 -53,47 -28,12 -30,14 -13,21 10,4 27,2 38,-5 15,-9 23,-9 34,0 19,15 18,25 -6,49 -26,26 -80,26 -114,-1 z"
       id="path8" />
    <path
       d="m 726,2454 c -8,-40 -13,-80 -10,-89 10,-24 47,-14 54,15 18,67 20,91 7,84 -8,-5 -7,-2 2,9 7,9 21,17 30,16 12,0 11,-2 -4,-9 -18,-8 -18,-9 -2,-9 13,-1 17,-7 13,-18 -12,-46 -15,-79 -7,-91 14,-23 44,-9 52,23 4,17 10,42 13,58 4,15 13,27 22,27 11,0 14,-6 10,-20 -3,-11 -9,-29 -12,-40 -9,-33 5,-62 29,-58 17,2 23,14 34,66 11,55 11,66 -3,88 -17,25 -43,30 -74,14 -11,-6 -21,-6 -24,-1 -4,5 -30,9 -60,9 l -53,-1 z"
       id="path10" />
    <path
       d="m 1689,2976 c -182,-49 -288,-364 -166,-494 49,-52 131,-67 203,-37 34,14 35,14 44,-10 11,-29 52,-58 71,-50 10,4 14,25 14,78 0,39 9,107 20,149 15,61 16,81 7,90 -12,12 -138,13 -175,2 -32,-10 -12,-29 42,-39 l 53,-10 -34,-65 c -38,-73 -86,-113 -132,-108 -40,4 -65,42 -78,119 -13,77 2,142 54,229 40,65 119,121 146,103 9,-6 16,-15 15,-20 -16,-87 -17,-83 11,-83 40,0 68,34 64,77 -5,63 -74,93 -159,69 z"
       id="path12" />
    <path
       d="m 2559,2967 c -91,-34 -149,-90 -149,-144 0,-33 26,-61 80,-88 85,-43 147,-113 134,-152 -22,-68 -59,-95 -132,-95 -56,0 -83,25 -91,84 -7,54 -40,65 -67,23 -16,-25 -16,-31 -3,-68 17,-51 74,-86 153,-94 162,-17 279,124 200,239 -25,36 -92,86 -161,122 -19,9 -33,24 -33,34 0,33 92,102 136,102 15,0 15,-2 -1,-26 -20,-31 -13,-54 15,-54 33,0 56,17 70,50 12,28 11,34 -7,52 -26,26 -96,33 -144,15 z"
       id="path14" />
    <path
       d="m 3067,2783 c -3,-5 -15,-55 -27,-113 -14,-68 -31,-119 -48,-145 -24,-36 -27,-38 -30,-18 -2,12 4,60 12,106 22,118 21,135 -9,143 -37,9 -50,-8 -64,-84 -14,-81 -54,-172 -75,-172 -16,0 -13,42 10,148 8,35 14,76 14,93 0,25 -4,29 -29,29 -16,0 -33,-6 -39,-12 -11,-15 -52,-196 -52,-233 0,-59 97,-108 144,-72 17,12 24,12 52,1 25,-10 40,-11 63,-3 18,6 40,9 51,6 29,-7 45,11 70,78 25,71 81,178 88,170 3,-2 -5,-43 -18,-90 -19,-70 -21,-87 -10,-100 27,-33 53,-13 98,73 24,46 46,82 48,80 2,-3 -3,-38 -12,-79 -19,-90 -11,-121 40,-146 33,-15 38,-15 80,1 25,10 49,15 54,12 17,-10 40,19 62,79 25,71 81,178 88,170 3,-2 -5,-43 -18,-90 -19,-70 -21,-87 -10,-100 27,-33 53,-13 98,73 24,46 46,82 48,79 2,-2 -3,-35 -11,-72 -20,-84 -13,-121 28,-146 40,-24 53,-24 101,1 35,17 41,18 60,5 26,-19 76,-19 102,-1 12,9 23,11 30,5 18,-15 161,-20 172,-6 5,7 15,41 21,77 23,120 62,184 134,221 21,11 35,24 32,29 -11,18 -81,11 -109,-11 -14,-11 -26,-16 -26,-11 0,17 -52,24 -65,10 -7,-7 -18,-47 -24,-88 -7,-41 -17,-89 -22,-106 -10,-33 -55,-82 -65,-71 -3,3 0,38 7,77 11,61 10,73 -2,81 -37,23 -59,8 -79,-56 -21,-65 -50,-116 -62,-109 -20,12 -1,130 29,186 33,60 49,69 62,35 12,-31 26,-40 51,-32 30,10 25,49 -11,79 -84,71 -183,-10 -219,-182 -13,-59 -64,-118 -76,-88 -4,10 3,57 16,104 34,134 35,143 14,159 -27,19 -49,16 -83,-13 -28,-23 -31,-24 -31,-7 0,51 -85,61 -133,16 -19,-18 -28,-22 -24,-11 9,24 -15,50 -44,46 -22,-3 -26,-12 -51,-127 -23,-106 -31,-129 -57,-155 -27,-26 -31,-28 -37,-12 -4,10 3,57 16,104 34,134 35,143 14,159 -27,19 -49,16 -83,-13 -28,-23 -31,-24 -31,-7 0,29 -20,43 -64,43 -30,0 -47,-7 -69,-27 -16,-16 -27,-21 -25,-13 8,24 -11,50 -37,50 -13,0 -26,-3 -28,-7 z"
       id="path16" />
    <path
       d="m 1994,2761 c -42,-25 -72,-77 -86,-145 -21,-108 24,-176 118,-176 74,0 130,70 141,176 5,50 4,54 -20,65 -36,16 -57,5 -57,-30 0,-41 -36,-134 -60,-156 -19,-17 -20,-17 -30,9 -23,61 -6,166 34,213 l 23,26 21,-21 c 12,-12 26,-22 31,-22 23,0 41,14 41,31 0,46 -98,65 -156,30 z"
       id="path18" />
    <path
       d="m 4564,2745 c -7,-19 -14,-40 -14,-47 0,-21 -55,-132 -73,-147 -21,-17 -21,-19 3,89 23,105 20,122 -24,118 -29,-3 -32,-6 -47,-71 -33,-136 -34,-154 -2,-183 22,-20 36,-25 65,-22 21,2 38,1 38,-2 -1,-3 -29,-21 -63,-41 -101,-59 -122,-128 -53,-170 85,-52 157,1 181,133 6,30 15,42 51,63 38,22 94,81 94,98 0,4 -9,11 -20,17 -16,9 -26,4 -60,-26 -22,-20 -40,-30 -40,-23 1,8 11,62 24,122 23,103 23,108 6,117 -33,18 -51,11 -66,-25 z"
       id="path20" />
  </g>
</svg>
